#!OML:ASF X:\für Bonn\!DataBase\2005_08_12_Daniel\c3d\Daniel.ASF
:FULLY-SPECIFIED
:DEGREES
163
root -3.67645 17.1696 -1.14305 339.559 -86.2756 -348.628
lowerback 26.1418 -2.4245 1.47831
upperback 0.923919 -3.1894 -2.06821
thorax -13.8297 -1.69427 -2.02209
lowerneck 6.64914 2.0921 -4.48411
upperneck 0.465269 2.44112 1.96465
head -1.06451 1.1711 1.30332
rclavicle -2.95692e-015 -2.38542e-015
rhumerus 84.1649 -30.336 -194.884
rradius 11.3841
rwrist 161.969
rhand -24.4299 13.8256
rfingers 7.12502
rthumb 2.06216 -16.1442
lclavicle -2.95692e-015 -2.38542e-015
lhumerus 55.7836 0.850529 96.153
lradius 9.34058
lwrist -68.7763
lhand -13.8267 1.28667
lfingers 7.12502
lthumb 12.2962 30.9051
rfemur 1.06718 5.15521 16.6765
rtibia 26.3477
rfoot -27.0609 -10.0352
rtoes -12.149
lfemur 172.224 194.004 -197.352
ltibia 36.2029
lfoot -24.2172 1.84384
ltoes -0.375357
164
root -3.70826 17.2007 -1.1465 339.492 -86.3195 -348.306
lowerback 25.3738 -2.40427 1.46118
upperback 0.763851 -3.16834 -2.09899
thorax -13.5942 -1.68289 -2.0747
lowerneck 6.7436 2.12375 -4.46753
upperneck 0.558291 2.47811 1.99531
head -1.05278 1.18689 1.30854
rclavicle 1.22501e-014 1.11319e-014
rhumerus 84.2982 -30.4873 -195.206
rradius 11.4351
rwrist 161.941
rhand -24.3732 13.7378
rfingers 7.12502
rthumb 2.11692 -16.2315
lclavicle 1.22501e-014 1.11319e-014
lhumerus 55.9622 0.735762 96.2272
lradius 8.91343
lwrist -68.7528
lhand -13.6739 1.51627
lfingers 7.12502
lthumb 12.4435 31.1258
rfemur 1.71794 7.05325 17.2111
rtibia 25.1962
rfoot -27.7921 -11.5946
rtoes -11.7574
lfemur 172.625 195.564 -197.669
ltibia 35.542
lfoot -24.7041 3.38407
ltoes -0.35485
165
root -3.73414 17.2273 -1.15024 339.484 -86.3585 -348.058
lowerback 24.6997 -2.38531 1.44387
upperback 0.589915 -3.14772 -2.12194
thorax -13.4238 -1.67157 -2.1151
lowerneck 6.83462 2.15815 -4.43466
upperneck 0.661488 2.51979 2.01657
head -1.03688 1.20503 1.30776
rclavicle 4.07509e-015 -9.54166e-015
rhumerus 84.501 -30.6416 -195.702
rradius 11.5179
rwrist 161.982
rhand -24.2909 13.693
rfingers 7.12502
rthumb 2.19641 -16.2755
lclavicle 4.07509e-015 -9.54166e-015
lhumerus 56.0997 0.617393 96.3218
lradius 8.56356
lwrist -68.8246
lhand -13.5623 1.75754
lfingers 7.12502
lthumb 12.5511 31.3606
rfemur 2.31612 9.01346 17.7544
rtibia 24.1646
rfoot -28.6278 -13.1318
rtoes -11.2301
lfemur 172.963 197.027 -197.957
ltibia 34.9837
lfoot -25.18 4.84109
ltoes -0.433788
166
root -3.75684 17.2494 -1.15355 339.359 -86.4119 -347.714
lowerback 24.091 -2.36567 1.44038
upperback 0.410756 -3.12444 -2.15762
thorax -13.2949 -1.66089 -2.17681
lowerneck 6.92972 2.19357 -4.3931
upperneck 0.767791 2.56329 2.04446
head -1.02073 1.22392 1.3075
rclavicle 1.30701e-014 2.78299e-015
rhumerus 84.8156 -30.8016 -196.352
rradius 11.5527
rwrist 162.112
rhand -24.2656 13.6845
rfingers 7.12502
rthumb 2.22087 -16.2837
lclavicle 1.30701e-014 2.78299e-015
lhumerus 56.1755 0.511743 96.386
lradius 8.2812
lwrist -68.9837
lhand -13.6178 1.97572
lfingers 7.12502
lthumb 12.4976 31.582
rfemur 2.88268 11.0393 18.314
rtibia 23.2469
rfoot -29.5736 -14.6812
rtoes -10.7518
lfemur 173.258 198.368 -198.229
ltibia 34.524
lfoot -25.6657 6.17051
ltoes -0.440095
167
root -3.77812 17.2676 -1.15631 339.372 -86.4402 -347.516
lowerback 23.4937 -2.35403 1.44592
upperback 0.249305 -3.10886 -2.18657
thorax -13.15 -1.65416 -2.23276
lowerneck 6.99373 2.21975 -4.37477
upperneck 0.874976 2.59462 2.09137
head -0.99934 1.23668 1.31793
rclavicle 1.56294e-014 8.74653e-015
rhumerus 85.1549 -30.9312 -197.078
rradius 11.6225
rwrist 162.236
rhand -24.1716 13.7163
rfingers 7.12502
rthumb 2.31159 -16.2509
lclavicle 1.56294e-014 8.74653e-015
lhumerus 56.2058 0.403165 96.4676
lradius 8.11711
lwrist -69.1751
lhand -13.6906 2.24901
lfingers 7.12502
lthumb 12.4275 31.8596
rfemur 3.40704 13.0219 18.8724
rtibia 22.4672
rfoot -30.632 -16.1847
rtoes -10.2412
lfemur 173.505 199.609 -198.471
ltibia 34.1503
lfoot -26.1481 7.37449
ltoes -0.478701
168
root -3.79935 17.2812 -1.15865 339.284 -86.4784 -347.268
lowerback 22.9567 -2.34171 1.43749
upperback 0.104441 -3.09454 -2.19964
thorax -13.0162 -1.6466 -2.26053
lowerneck 6.98469 2.24286 -4.34892
upperneck 1.03846 2.62438 2.091
head -0.946278 1.24921 1.31247
rclavicle 2.88114e-014 1.15295e-014
rhumerus 85.5866 -31.0595 -197.993
rradius 11.6695
rwrist 162.59
rhand -24.1247 13.7668
rfingers 7.12502
rthumb 2.35688 -16.1999
lclavicle 2.88114e-014 1.15295e-014
lhumerus 56.1769 0.35442 96.5467
lradius 8.04394
lwrist -69.3642
lhand -13.8503 2.39263
lfingers 7.12502
lthumb 12.2734 32.0125
rfemur 3.93931 15.0212 19.4426
rtibia 21.8029
rfoot -31.8003 -17.6033
rtoes -9.7479
lfemur 173.778 200.851 -198.741
ltibia 33.8587
lfoot -26.6987 8.55037
ltoes -0.405798
169
root -3.81941 17.2898 -1.16086 338.862 -86.518 -346.731
lowerback 22.5044 -2.32302 1.43649
upperback -0.0433491 -3.07417 -2.24088
thorax -12.934 -1.63847 -2.32412
lowerneck 6.99355 2.25415 -4.31003
upperneck 1.20709 2.63891 2.13518
head -0.894937 1.25332 1.31938
rclavicle -9.39258e-015 -2.38542e-015
rhumerus 86.0039 -31.1976 -198.817
rradius 11.714
rwrist 162.789
rhand -23.9781 13.8023
rfingers 7.12502
rthumb 2.49853 -16.1628
lclavicle -9.39258e-015 -2.38542e-015
lhumerus 56.0721 0.266211 96.6064
lradius 8.01575
lwrist -69.5252
lhand -13.9981 2.58983
lfingers 7.12502
lthumb 12.1309 32.2181
rfemur 4.46677 16.9213 19.9879
rtibia 21.2579
rfoot -33.0109 -18.9063
rtoes -9.20772
lfemur 174.083 202.025 -199.042
ltibia 33.6304
lfoot -27.2748 9.67369
ltoes -0.341727
170
root -3.83972 17.2956 -1.1628 338.542 -86.5437 -346.331
lowerback 22.0688 -2.31318 1.42116
upperback -0.156344 -3.06657 -2.25965
thorax -12.8183 -1.63422 -2.34934
lowerneck 6.93575 2.27258 -4.28411
upperneck 1.38727 2.66459 2.14259
head -0.828432 1.26397 1.31695
rclavicle 2.20775e-014 1.07344e-014
rhumerus 86.5058 -31.3034 -199.865
rradius 11.7669
rwrist 163.257
rhand -23.8307 13.7692
rfingers 7.12502
rthumb 2.64089 -16.1942
lclavicle 2.20775e-014 1.07344e-014
lhumerus 55.9789 0.213859 96.6877
lradius 7.9934
lwrist -69.6881
lhand -14.1206 2.77229
lfingers 7.12502
lthumb 12.0129 32.4075
rfemur 4.98291 18.7092 20.5339
rtibia 20.7997
rfoot -34.21 -20.1411
rtoes -8.73088
lfemur 174.37 203.135 -199.336
ltibia 33.4573
lfoot -27.8178 10.7176
ltoes -0.339103
171
root -3.86013 17.2993 -1.16498 338.492 -86.569 -346.228
lowerback 21.6703 -2.30334 1.43237
upperback -0.266011 -3.05328 -2.28578
thorax -12.7205 -1.62958 -2.39891
lowerneck 6.88271 2.27972 -4.22237
upperneck 1.56911 2.67757 2.14725
head -0.761229 1.26842 1.30784
rclavicle -5.67158e-015 -7.55382e-015
rhumerus 87.0338 -31.4113 -200.917
rradius 11.8526
rwrist 163.792
rhand -23.6622 13.7495
rfingers 7.12502
rthumb 2.80356 -16.2118
lclavicle -5.67158e-015 -7.55382e-015
lhumerus 55.8028 0.166481 96.7394
lradius 8.02439
lwrist -69.724
lhand -14.2245 2.90546
lfingers 7.12502
lthumb 11.9127 32.5465
rfemur 5.47644 20.37 21.0836
rtibia 20.4245
rfoot -35.3733 -21.2953
rtoes -8.35164
lfemur 174.647 204.15 -199.595
ltibia 33.3232
lfoot -28.3589 11.6492
ltoes -0.213781
172
root -3.88114 17.3026 -1.16722 337.978 -86.5733 -345.663
lowerback 21.2792 -2.2929 1.40627
upperback -0.360207 -3.04831 -2.30714
thorax -12.6064 -1.62613 -2.41877
lowerneck 6.7654 2.28292 -4.18266
upperneck 1.78376 2.68594 2.12965
head -0.672708 1.27092 1.29618
rclavicle 1.07592e-014 1.47101e-014
rhumerus 87.5617 -31.5052 -201.927
rradius 11.9225
rwrist 164.436
rhand -23.543 13.7095
rfingers 7.12502
rthumb 2.91871 -16.2503
lclavicle 1.07592e-014 1.47101e-014
lhumerus 55.6295 0.179499 96.7771
lradius 8.07633
lwrist -69.724
lhand -14.1602 2.97631
lfingers 7.12502
lthumb 11.9746 32.6138
rfemur 5.9884 22.1385 21.6538
rtibia 20.1017
rfoot -36.6911 -22.5021
rtoes -8.01011
lfemur 174.844 204.704 -199.782
ltibia 33.2215
lfoot -28.6698 12.2266
ltoes -0.225881
173
root -3.90191 17.3045 -1.16884 337.905 -86.5881 -345.572
lowerback 20.9306 -2.28344 1.42702
upperback -0.43913 -3.03382 -2.33442
thorax -12.5007 -1.62167 -2.47409
lowerneck 6.63676 2.27339 -4.12085
upperneck 2.00706 2.67936 2.12465
head -0.57923 1.26595 1.28535
rclavicle 1.43001e-014 -2.78299e-015
rhumerus 88.0062 -31.6038 -202.724
rradius 11.9837
rwrist 164.905
rhand -23.4099 13.5953
rfingers 7.12502
rthumb 3.04726 -16.3627
lclavicle 1.43001e-014 -2.78299e-015
lhumerus 55.4036 0.169687 96.8022
lradius 8.16542
lwrist -69.6297
lhand -14.0924 3.08944
lfingers 7.12502
lthumb 12.04 32.7231
rfemur 6.45359 23.5348 22.1681
rtibia 19.8424
rfoot -37.7351 -23.507
rtoes -7.85523
lfemur 175.024 204.974 -199.883
ltibia 33.1459
lfoot -28.8892 12.5673
ltoes -0.319855
174
root -3.92174 17.3049 -1.17083 337.639 -86.5896 -345.288
lowerback 20.5916 -2.2791 1.418
upperback -0.511849 -3.03231 -2.35221
thorax -12.3914 -1.62084 -2.49727
lowerneck 6.51329 2.27451 -4.08922
upperneck 2.22606 2.68439 2.12483
head -0.489296 1.26658 1.28117
rclavicle -4.07493e-014 -2.38542e-014
rhumerus 88.2202 -31.7462 -203.038
rradius 11.996
rwrist 165.096
rhand -23.2943 13.4918
rfingers 7.12502
rthumb 3.15887 -16.4645
lclavicle -4.07493e-014 -2.38542e-014
lhumerus 55.1329 0.197232 96.8298
lradius 8.31304
lwrist -69.4444
lhand -13.9079 3.13074
lfingers 7.12502
lthumb 12.2179 32.7539
rfemur 6.82445 24.5796 22.5572
rtibia 19.6497
rfoot -38.5117 -24.2491
rtoes -7.69695
lfemur 175.188 205.359 -200.023
ltibia 33.1028
lfoot -29.1349 12.993
ltoes -0.340816
175
root -3.93988 17.3039 -1.17224 337.399 -86.5847 -345.065
lowerback 20.3145 -2.27801 1.42767
upperback -0.557344 -3.03329 -2.38855
thorax -12.2882 -1.62327 -2.5497
lowerneck 6.35568 2.25374 -3.9639
upperneck 2.4503 2.66813 2.07488
head -0.389018 1.25801 1.2458
rclavicle -4.02228e-015 1.90833e-014
rhumerus 88.1056 -31.9138 -202.713
rradius 12.0347
rwrist 164.834
rhand -23.225 13.4354
rfingers 7.12502
rthumb 3.22583 -16.5199
lclavicle -4.02228e-015 1.90833e-014
lhumerus 54.9074 0.193444 96.8355
lradius 8.43266
lwrist -69.1667
lhand -13.7517 3.16625
lfingers 7.12502
lthumb 12.3685 32.7804
rfemur 7.17411 25.471 22.9172
rtibia 19.5238
rfoot -39.1915 -24.9168
rtoes -7.64885
lfemur 175.356 205.644 -200.155
ltibia 33.0915
lfoot -29.3372 13.3328
ltoes -0.420612
176
root -3.95687 17.3004 -1.17331 337.363 -86.5847 -345.039
lowerback 20.0458 -2.27992 1.42291
upperback -0.60787 -3.03667 -2.38816
thorax -12.1924 -1.62417 -2.5518
lowerneck 6.28261 2.23922 -3.84622
upperneck 2.64293 2.65561 1.93821
head -0.311732 1.2515 1.18363
rclavicle 1.9717e-014 1.15295e-014
rhumerus 87.7358 -32.1596 -201.883
rradius 12.024
rwrist 164.257
rhand -23.1892 13.3171
rfingers 7.12502
rthumb 3.26043 -16.6377
lclavicle 1.9717e-014 1.15295e-014
lhumerus 54.7327 0.247746 96.8704
lradius 8.51175
lwrist -68.8865
lhand -13.5685 3.23228
lfingers 7.12502
lthumb 12.5452 32.8357
rfemur 7.46541 26.2808 23.267
rtibia 19.4619
rfoot -39.8346 -25.5101
rtoes -7.45995
lfemur 175.473 205.842 -200.244
ltibia 33.1108
lfoot -29.5206 13.6076
ltoes -0.584136
177
root -3.97212 17.2957 -1.17463 337.169 -86.5728 -344.873
lowerback 19.8074 -2.2834 1.42492
upperback -0.64596 -3.04346 -2.40875
thorax -12.1013 -1.62811 -2.57951
lowerneck 6.27531 2.22532 -3.75004
upperneck 2.80477 2.6399 1.84644
head -0.256394 1.24265 1.13903
rclavicle 1.81764e-014 8.34896e-015
rhumerus 87.4413 -32.3502 -201.174
rradius 12.0192
rwrist 163.796
rhand -23.1624 13.2356
rfingers 7.12502
rthumb 3.28625 -16.7189
lclavicle 1.81764e-014 8.34896e-015
lhumerus 54.5887 0.275008 96.8858
lradius 8.54016
lwrist -68.5094
lhand -13.4783 3.2813
lfingers 7.12502
lthumb 12.6321 32.8793
rfemur 7.71257 26.9102 23.5475
rtibia 19.4508
rfoot -40.3466 -25.9508
rtoes -7.27713
lfemur 175.589 205.998 -200.334
ltibia 33.1483
lfoot -29.682 13.78
ltoes -0.588358
